<?xml version="1.0" encoding="UTF-8"?>
<!DOCTYPE svg PUBLIC "-//W3C//DTD SVG 1.1//EN" "http://www.w3.org/Graphics/SVG/1.1/DTD/svg11.dtd">
<svg xmlns="http://www.w3.org/2000/svg" version="1.1" width="200px" height="200px" style="shape-rendering:geometricPrecision; text-rendering:geometricPrecision; image-rendering:optimizeQuality; fill-rule:evenodd; clip-rule:evenodd" xmlns:xlink="http://www.w3.org/1999/xlink">
<g><path style="opacity:0.69" fill="#000102" d="M 98.5,5.5 C 100.199,5.33982 101.866,5.50649 103.5,6C 146.022,34.8444 174.522,74.011 189,123.5C 193.437,139.14 194.937,154.974 193.5,171C 136.949,199.686 79.2823,202.019 20.5,178C 15.2557,175.797 10.4223,172.964 6,169.5C 9.39881,112.216 31.5655,63.7159 72.5,24C 80.7911,17.1936 89.4578,11.027 98.5,5.5 Z M 99.5,20.5 C 117.067,30.8872 132.067,44.3872 144.5,61C 142.87,62.2131 141.036,63.0464 139,63.5C 135.435,61.6334 131.935,59.6334 128.5,57.5C 127.952,43.4873 123.118,41.8207 114,52.5C 111.423,51.7289 108.923,50.7289 106.5,49.5C 101.312,38.5933 96.9782,38.9267 93.5,50.5C 89.208,51.0577 85.0413,52.0577 81,53.5C 71.7263,44.2113 67.2263,46.2113 67.5,59.5C 64.0558,63.7643 60.0558,64.431 55.5,61.5C 60.2664,54.5638 65.5997,48.0638 71.5,42C 80.001,33.6017 89.3344,26.4351 99.5,20.5 Z M 149.5,67.5 C 152.143,71.4346 154.81,75.4346 157.5,79.5C 155.926,80.6309 154.259,80.7975 152.5,80C 151.072,77.8153 149.405,75.8153 147.5,74C 148.669,71.9935 149.335,69.8268 149.5,67.5 Z M 49.5,69.5 C 51.7188,71.0654 52.0521,73.0654 50.5,75.5C 48.9255,76.6309 47.2588,76.7975 45.5,76C 47.2206,74.0562 48.554,71.8895 49.5,69.5 Z M 118.5,67.5 C 120.273,68.3143 120.773,69.6476 120,71.5C 118.581,70.5399 117.081,69.7065 115.5,69C 116.737,68.7679 117.737,68.2679 118.5,67.5 Z M 79.5,70.5 C 80.0748,67.1322 81.7415,66.6322 84.5,69C 82.8455,69.6077 81.1789,70.1077 79.5,70.5 Z M 99.5,63.5 C 103.412,66.2363 102.745,67.0697 97.5,66C 98.3805,65.2917 99.0472,64.4584 99.5,63.5 Z M 135.5,83.5 C 130.805,80.9749 130.805,79.6415 135.5,79.5C 135.5,80.8333 135.5,82.1667 135.5,83.5 Z M 161.5,88.5 C 172.95,108.7 179.283,130.534 180.5,154C 180.167,156.167 179.833,158.333 179.5,160.5C 172.358,163.934 165.192,167.267 158,170.5C 157.415,168.871 156.581,167.371 155.5,166C 158.369,161.931 157.536,158.765 153,156.5C 152.05,157.022 151.216,157.689 150.5,158.5C 147.415,154.395 147.915,151.062 152,148.5C 152.303,146.112 153.137,143.945 154.5,142C 158.104,140.846 161.771,140.013 165.5,139.5C 165.107,134.713 163.107,130.713 159.5,127.5C 160.074,124.823 160.741,122.157 161.5,119.5C 173.137,114.865 172.971,110.198 161,105.5C 160.324,101.798 159.491,98.131 158.5,94.5C 159.489,92.5061 160.489,90.5061 161.5,88.5 Z M 36.5,93.5 C 40.4544,96.918 41.121,101.251 38.5,106.5C 36.0038,107.58 33.6705,108.914 31.5,110.5C 31.1667,110.167 30.8333,109.833 30.5,109.5C 32.5134,104.146 34.5134,98.8122 36.5,93.5 Z M 141.5,94.5 C 145.579,95.7297 146.413,98.0631 144,101.5C 142.477,99.4308 141.643,97.0974 141.5,94.5 Z M 99.5,109.5 C 102.14,110.794 102.14,112.127 99.5,113.5C 98.3744,112.192 98.3744,110.858 99.5,109.5 Z M 29.5,113.5 C 32.069,116.728 35.4023,118.728 39.5,119.5C 39.188,123.675 39.8547,127.675 41.5,131.5C 39.5,134.833 37.5,138.167 35.5,141.5C 35.8333,142.167 36.1667,142.833 36.5,143.5C 40.3118,144.097 43.9785,145.097 47.5,146.5C 44.8512,147.972 42.0179,148.972 39,149.5C 37.1199,154.796 38.9533,157.296 44.5,157C 43.1955,157.804 42.5288,158.971 42.5,160.5C 43.4117,163.465 43.4117,166.465 42.5,169.5C 34.1139,167.709 26.4473,164.375 19.5,159.5C 21.449,143.849 24.7823,128.515 29.5,113.5 Z M 143.5,119.5 C 146.001,119.511 146.168,120.178 144,121.5C 143.536,120.906 143.369,120.239 143.5,119.5 Z M 139.5,131.5 C 141.308,132.918 141.975,134.918 141.5,137.5C 139.669,138.052 138.003,138.052 136.5,137.5C 138.038,135.757 139.038,133.757 139.5,131.5 Z M 70.5,146.5 C 71.2891,146.783 71.9558,147.283 72.5,148C 71.184,148.528 70.5173,148.028 70.5,146.5 Z M 88.5,156.5 C 95.4047,155.996 95.9047,156.996 90,159.5C 88.9614,158.756 88.4614,157.756 88.5,156.5 Z M 51.5,170.5 C 58.4567,171.386 65.4567,171.72 72.5,171.5C 73.3635,173.895 73.3635,176.229 72.5,178.5C 64.3857,176.777 56.3857,174.61 48.5,172C 49.7375,171.768 50.7375,171.268 51.5,170.5 Z M 129.5,177.5 C 131.081,175.858 131.747,173.858 131.5,171.5C 138.841,171.334 146.174,171.5 153.5,172C 145.705,174.782 137.705,176.616 129.5,177.5 Z M 118.5,172.5 C 120.964,174.57 123.631,176.404 126.5,178C 119.17,179.237 111.836,179.904 104.5,180C 105.376,178.414 106.376,176.914 107.5,175.5C 111.366,174.811 115.032,173.811 118.5,172.5 Z M 84.5,173.5 C 87.5823,174.017 90.5823,174.85 93.5,176C 95.312,177.627 95.4787,179.127 94,180.5C 89.4986,179.916 84.9986,179.249 80.5,178.5C 81.9527,176.815 83.286,175.149 84.5,173.5 Z"/></g>
<g><path style="opacity:1" fill="#032038" d="M 99.5,8.5 C 142.791,35.3208 171.624,73.3208 186,122.5C 190.839,137.738 192.672,153.238 191.5,169C 130.511,200.495 69.6772,200.328 9,168.5C 12.645,108.379 37.145,58.8786 82.5,20C 88.2324,16.1436 93.8991,12.3103 99.5,8.5 Z M 99.5,20.5 C 89.3344,26.4351 80.001,33.6017 71.5,42C 65.5997,48.0638 60.2664,54.5638 55.5,61.5C 60.0558,64.431 64.0558,63.7643 67.5,59.5C 67.2263,46.2113 71.7263,44.2113 81,53.5C 85.0413,52.0577 89.208,51.0577 93.5,50.5C 96.9782,38.9267 101.312,38.5933 106.5,49.5C 108.923,50.7289 111.423,51.7289 114,52.5C 123.118,41.8207 127.952,43.4873 128.5,57.5C 131.935,59.6334 135.435,61.6334 139,63.5C 141.036,63.0464 142.87,62.2131 144.5,61C 132.067,44.3872 117.067,30.8872 99.5,20.5 Z M 149.5,67.5 C 149.335,69.8268 148.669,71.9935 147.5,74C 149.405,75.8153 151.072,77.8153 152.5,80C 154.259,80.7975 155.926,80.6309 157.5,79.5C 154.81,75.4346 152.143,71.4346 149.5,67.5 Z M 49.5,69.5 C 48.554,71.8895 47.2206,74.0562 45.5,76C 47.2588,76.7975 48.9255,76.6309 50.5,75.5C 52.0521,73.0654 51.7188,71.0654 49.5,69.5 Z M 118.5,67.5 C 117.737,68.2679 116.737,68.7679 115.5,69C 117.081,69.7065 118.581,70.5399 120,71.5C 120.773,69.6476 120.273,68.3143 118.5,67.5 Z M 79.5,70.5 C 81.1789,70.1077 82.8455,69.6077 84.5,69C 81.7415,66.6322 80.0748,67.1322 79.5,70.5 Z M 99.5,63.5 C 99.0472,64.4584 98.3805,65.2917 97.5,66C 102.745,67.0697 103.412,66.2363 99.5,63.5 Z M 135.5,83.5 C 135.5,82.1667 135.5,80.8333 135.5,79.5C 130.805,79.6415 130.805,80.9749 135.5,83.5 Z M 161.5,88.5 C 160.489,90.5061 159.489,92.5061 158.5,94.5C 159.491,98.131 160.324,101.798 161,105.5C 172.971,110.198 173.137,114.865 161.5,119.5C 160.741,122.157 160.074,124.823 159.5,127.5C 163.107,130.713 165.107,134.713 165.5,139.5C 161.771,140.013 158.104,140.846 154.5,142C 153.137,143.945 152.303,146.112 152,148.5C 147.915,151.062 147.415,154.395 150.5,158.5C 151.216,157.689 152.05,157.022 153,156.5C 157.536,158.765 158.369,161.931 155.5,166C 156.581,167.371 157.415,168.871 158,170.5C 165.192,167.267 172.358,163.934 179.5,160.5C 179.833,158.333 180.167,156.167 180.5,154C 179.283,130.534 172.95,108.7 161.5,88.5 Z M 36.5,93.5 C 34.5134,98.8122 32.5134,104.146 30.5,109.5C 30.8333,109.833 31.1667,110.167 31.5,110.5C 33.6705,108.914 36.0038,107.58 38.5,106.5C 41.121,101.251 40.4544,96.918 36.5,93.5 Z M 141.5,94.5 C 141.643,97.0974 142.477,99.4308 144,101.5C 146.413,98.0631 145.579,95.7297 141.5,94.5 Z M 99.5,109.5 C 98.3744,110.858 98.3744,112.192 99.5,113.5C 102.14,112.127 102.14,110.794 99.5,109.5 Z M 29.5,113.5 C 24.7823,128.515 21.449,143.849 19.5,159.5C 26.4473,164.375 34.1139,167.709 42.5,169.5C 43.4117,166.465 43.4117,163.465 42.5,160.5C 42.5288,158.971 43.1955,157.804 44.5,157C 38.9533,157.296 37.1199,154.796 39,149.5C 42.0179,148.972 44.8512,147.972 47.5,146.5C 43.9785,145.097 40.3118,144.097 36.5,143.5C 36.1667,142.833 35.8333,142.167 35.5,141.5C 37.5,138.167 39.5,134.833 41.5,131.5C 39.8547,127.675 39.188,123.675 39.5,119.5C 35.4023,118.728 32.069,116.728 29.5,113.5 Z M 143.5,119.5 C 143.369,120.239 143.536,120.906 144,121.5C 146.168,120.178 146.001,119.511 143.5,119.5 Z M 139.5,131.5 C 139.038,133.757 138.038,135.757 136.5,137.5C 138.003,138.052 139.669,138.052 141.5,137.5C 141.975,134.918 141.308,132.918 139.5,131.5 Z M 70.5,146.5 C 70.5173,148.028 71.184,148.528 72.5,148C 71.9558,147.283 71.2891,146.783 70.5,146.5 Z M 88.5,156.5 C 88.4614,157.756 88.9614,158.756 90,159.5C 95.9047,156.996 95.4047,155.996 88.5,156.5 Z M 51.5,170.5 C 50.7375,171.268 49.7375,171.768 48.5,172C 56.3857,174.61 64.3857,176.777 72.5,178.5C 73.3635,176.229 73.3635,173.895 72.5,171.5C 65.4567,171.72 58.4567,171.386 51.5,170.5 Z M 129.5,177.5 C 137.705,176.616 145.705,174.782 153.5,172C 146.174,171.5 138.841,171.334 131.5,171.5C 131.747,173.858 131.081,175.858 129.5,177.5 Z M 118.5,172.5 C 115.032,173.811 111.366,174.811 107.5,175.5C 106.376,176.914 105.376,178.414 104.5,180C 111.836,179.904 119.17,179.237 126.5,178C 123.631,176.404 120.964,174.57 118.5,172.5 Z M 84.5,173.5 C 83.286,175.149 81.9527,176.815 80.5,178.5C 84.9986,179.249 89.4986,179.916 94,180.5C 95.4787,179.127 95.312,177.627 93.5,176C 90.5823,174.85 87.5823,174.017 84.5,173.5 Z"/></g>
<g><path style="opacity:0.763" fill="#030609" d="M 99.5,17.5 C 102.714,18.4404 105.714,19.9404 108.5,22C 151.729,53.6081 176.562,96.1081 183,149.5C 183.828,153.871 183.661,158.205 182.5,162.5C 127.934,190.233 73.2678,190.399 18.5,163C 19.0182,137.753 24.6849,113.586 35.5,90.5C 36.0016,89.479 36.6683,89.3123 37.5,90C 38.8804,91.9252 40.3804,93.7585 42,95.5C 43.1356,92.9036 43.969,90.237 44.5,87.5C 41.8239,88.0081 39.1572,88.1747 36.5,88C 50.408,58.4863 71.408,34.9863 99.5,17.5 Z M 99.5,20.5 C 89.3344,26.4351 80.001,33.6017 71.5,42C 65.5997,48.0638 60.2664,54.5638 55.5,61.5C 60.0558,64.431 64.0558,63.7643 67.5,59.5C 67.2263,46.2113 71.7263,44.2113 81,53.5C 85.0413,52.0577 89.208,51.0577 93.5,50.5C 96.9782,38.9267 101.312,38.5933 106.5,49.5C 108.923,50.7289 111.423,51.7289 114,52.5C 123.118,41.8207 127.952,43.4873 128.5,57.5C 131.935,59.6334 135.435,61.6334 139,63.5C 141.036,63.0464 142.87,62.2131 144.5,61C 132.067,44.3872 117.067,30.8872 99.5,20.5 Z M 149.5,67.5 C 149.335,69.8268 148.669,71.9935 147.5,74C 149.405,75.8153 151.072,77.8153 152.5,80C 154.259,80.7975 155.926,80.6309 157.5,79.5C 154.81,75.4346 152.143,71.4346 149.5,67.5 Z M 49.5,69.5 C 48.554,71.8895 47.2206,74.0562 45.5,76C 47.2588,76.7975 48.9255,76.6309 50.5,75.5C 52.0521,73.0654 51.7188,71.0654 49.5,69.5 Z M 118.5,67.5 C 117.737,68.2679 116.737,68.7679 115.5,69C 117.081,69.7065 118.581,70.5399 120,71.5C 120.773,69.6476 120.273,68.3143 118.5,67.5 Z M 79.5,70.5 C 81.1789,70.1077 82.8455,69.6077 84.5,69C 81.7415,66.6322 80.0748,67.1322 79.5,70.5 Z M 99.5,63.5 C 99.0472,64.4584 98.3805,65.2917 97.5,66C 102.745,67.0697 103.412,66.2363 99.5,63.5 Z M 135.5,83.5 C 135.5,82.1667 135.5,80.8333 135.5,79.5C 130.805,79.6415 130.805,80.9749 135.5,83.5 Z M 161.5,88.5 C 160.489,90.5061 159.489,92.5061 158.5,94.5C 159.491,98.131 160.324,101.798 161,105.5C 172.971,110.198 173.137,114.865 161.5,119.5C 160.741,122.157 160.074,124.823 159.5,127.5C 163.107,130.713 165.107,134.713 165.5,139.5C 161.771,140.013 158.104,140.846 154.5,142C 153.137,143.945 152.303,146.112 152,148.5C 147.915,151.062 147.415,154.395 150.5,158.5C 151.216,157.689 152.05,157.022 153,156.5C 157.536,158.765 158.369,161.931 155.5,166C 156.581,167.371 157.415,168.871 158,170.5C 165.192,167.267 172.358,163.934 179.5,160.5C 179.833,158.333 180.167,156.167 180.5,154C 179.283,130.534 172.95,108.7 161.5,88.5 Z M 36.5,93.5 C 34.5134,98.8122 32.5134,104.146 30.5,109.5C 30.8333,109.833 31.1667,110.167 31.5,110.5C 33.6705,108.914 36.0038,107.58 38.5,106.5C 41.121,101.251 40.4544,96.918 36.5,93.5 Z M 141.5,94.5 C 141.643,97.0974 142.477,99.4308 144,101.5C 146.413,98.0631 145.579,95.7297 141.5,94.5 Z M 99.5,109.5 C 98.3744,110.858 98.3744,112.192 99.5,113.5C 102.14,112.127 102.14,110.794 99.5,109.5 Z M 29.5,113.5 C 24.7823,128.515 21.449,143.849 19.5,159.5C 26.4473,164.375 34.1139,167.709 42.5,169.5C 43.4117,166.465 43.4117,163.465 42.5,160.5C 42.5288,158.971 43.1955,157.804 44.5,157C 38.9533,157.296 37.1199,154.796 39,149.5C 42.0179,148.972 44.8512,147.972 47.5,146.5C 43.9785,145.097 40.3118,144.097 36.5,143.5C 36.1667,142.833 35.8333,142.167 35.5,141.5C 37.5,138.167 39.5,134.833 41.5,131.5C 39.8547,127.675 39.188,123.675 39.5,119.5C 35.4023,118.728 32.069,116.728 29.5,113.5 Z M 143.5,119.5 C 143.369,120.239 143.536,120.906 144,121.5C 146.168,120.178 146.001,119.511 143.5,119.5 Z M 139.5,131.5 C 139.038,133.757 138.038,135.757 136.5,137.5C 138.003,138.052 139.669,138.052 141.5,137.5C 141.975,134.918 141.308,132.918 139.5,131.5 Z M 70.5,146.5 C 70.5173,148.028 71.184,148.528 72.5,148C 71.9558,147.283 71.2891,146.783 70.5,146.5 Z M 88.5,156.5 C 88.4614,157.756 88.9614,158.756 90,159.5C 95.9047,156.996 95.4047,155.996 88.5,156.5 Z M 51.5,170.5 C 50.7375,171.268 49.7375,171.768 48.5,172C 56.3857,174.61 64.3857,176.777 72.5,178.5C 73.3635,176.229 73.3635,173.895 72.5,171.5C 65.4567,171.72 58.4567,171.386 51.5,170.5 Z M 129.5,177.5 C 137.705,176.616 145.705,174.782 153.5,172C 146.174,171.5 138.841,171.334 131.5,171.5C 131.747,173.858 131.081,175.858 129.5,177.5 Z M 118.5,172.5 C 115.032,173.811 111.366,174.811 107.5,175.5C 106.376,176.914 105.376,178.414 104.5,180C 111.836,179.904 119.17,179.237 126.5,178C 123.631,176.404 120.964,174.57 118.5,172.5 Z M 84.5,173.5 C 83.286,175.149 81.9527,176.815 80.5,178.5C 84.9986,179.249 89.4986,179.916 94,180.5C 95.4787,179.127 95.312,177.627 93.5,176C 90.5823,174.85 87.5823,174.017 84.5,173.5 Z"/></g>
<g><path style="opacity:1" fill="#041e33" d="M 99.5,44.5 C 101.751,46.1462 103.418,48.3129 104.5,51C 101.854,51.4974 99.1873,51.6641 96.5,51.5C 97.0115,48.9785 98.0115,46.6451 99.5,44.5 Z"/></g>
<g><path style="opacity:1" fill="#031f35" d="M 122.5,48.5 C 124.344,50.2789 125.01,52.6122 124.5,55.5C 121.903,55.3568 119.569,54.5234 117.5,53C 119.618,51.9509 121.284,50.4509 122.5,48.5 Z"/></g>
<g><path style="opacity:1" fill="#031f35" d="M 71.5,50.5 C 74.1161,51.4798 76.4494,52.9798 78.5,55C 76.2537,56.0395 74.087,57.2062 72,58.5C 71.5026,55.854 71.3359,53.1873 71.5,50.5 Z"/></g>
<g><path style="opacity:1" fill="#031a2d" d="M 88.5,53.5 C 112.148,50.5989 131.481,58.2656 146.5,76.5C 146.333,76.8333 146.167,77.1667 146,77.5C 125.498,53.8328 100.998,48.4995 72.5,61.5C 71.3044,61.1543 71.3044,60.6543 72.5,60C 77.8188,57.4974 83.1522,55.3308 88.5,53.5 Z"/></g>
<g><path style="opacity:1" fill="#031a2e" d="M 89.5,56.5 C 96.5079,56.3337 103.508,56.5004 110.5,57C 114.637,57.9344 118.637,59.2678 122.5,61C 117.864,60.2416 113.197,59.2416 108.5,58C 95.2617,56.081 82.9284,58.581 71.5,65.5C 70.3044,65.1543 70.3044,64.6543 71.5,64C 77.3281,60.7883 83.3281,58.2883 89.5,56.5 Z"/></g>
<g><path style="opacity:1" fill="#031f35" d="M 143.5,64.5 C 144.833,64.5 146.167,64.5 147.5,64.5C 147.248,73.0451 144.915,73.7117 140.5,66.5C 141.602,65.8243 142.602,65.1577 143.5,64.5 Z"/></g>
<g><path style="opacity:1" fill="#03192c" d="M 147.5,84.5 C 143.105,78.5972 138.105,73.0972 132.5,68C 133.167,67.3333 133.833,67.3333 134.5,68C 140.216,72.5333 144.549,78.0333 147.5,84.5 Z"/></g>
<g><path style="opacity:1" fill="#032036" d="M 91.5,69.5 C 108.242,67.4668 122.075,72.8001 133,85.5C 135.988,89.8085 138.155,94.4751 139.5,99.5C 137.712,99.7852 136.045,99.4519 134.5,98.5C 125.994,80.1887 111.661,72.3553 91.5,75C 88.4712,75.7848 85.6379,76.9515 83,78.5C 80.8649,77.8729 78.6982,77.3729 76.5,77C 81.1516,73.6276 86.1516,71.1276 91.5,69.5 Z"/></g>
<g><path style="opacity:1" fill="#5a6e7a" d="M 75.5,79.5 C 63.784,78.8556 52.4507,79.5223 41.5,81.5C 40.596,80.791 40.2627,79.791 40.5,78.5C 52.3453,78.1717 64.012,78.5051 75.5,79.5 Z"/></g>
<g><path style="opacity:1" fill="#032036" d="M 93.5,77.5 C 111.142,76.1478 123.809,83.3145 131.5,99C 129.421,99.8077 127.421,99.641 125.5,98.5C 121.309,90.2271 114.642,85.0604 105.5,83C 101.167,82.6667 96.8333,82.3333 92.5,82C 91.1667,81.3333 89.8333,80.6667 88.5,80C 90.3146,79.2432 91.9812,78.4098 93.5,77.5 Z"/></g>
<g><path style="opacity:1" fill="#031f36" d="M 89.5,59.5 C 127.353,57.5168 148.687,75.3501 153.5,113C 152.769,122.66 150.269,131.826 146,140.5C 142.9,143.8 139.4,144.3 135.5,142C 138.35,140.829 141.184,139.662 144,138.5C 143.907,134.174 143.907,129.841 144,125.5C 146.683,122.984 149.183,120.317 151.5,117.5C 151.345,114.273 151.178,110.94 151,107.5C 149.5,106 148,104.5 146.5,103C 147.308,100.912 148.308,98.9124 149.5,97C 146.264,94.1319 142.764,91.6319 139,89.5C 138.501,85.5138 138.334,81.5138 138.5,77.5C 134.452,77.1604 130.452,76.4938 126.5,75.5C 124.961,72.2544 123.294,69.0877 121.5,66C 117.167,66.3333 112.833,66.6667 108.5,67C 105.667,64.8333 102.833,62.6667 100,60.5C 97.4066,62.5486 94.9066,64.7152 92.5,67C 88.4064,67.4801 84.4064,66.9801 80.5,65.5C 77.5731,68.4956 75.2398,71.9956 73.5,76C 69.5,76.6667 65.5,76.6667 61.5,76C 69.2266,67.6416 78.5599,62.1416 89.5,59.5 Z M 118.5,67.5 C 117.737,68.2679 116.737,68.7679 115.5,69C 117.081,69.7065 118.581,70.5399 120,71.5C 120.773,69.6476 120.273,68.3143 118.5,67.5 Z M 79.5,70.5 C 81.1789,70.1077 82.8455,69.6077 84.5,69C 81.7415,66.6322 80.0748,67.1322 79.5,70.5 Z M 99.5,63.5 C 99.0472,64.4584 98.3805,65.2917 97.5,66C 102.745,67.0697 103.412,66.2363 99.5,63.5 Z"/></g>
<g><path style="opacity:1" fill="#a0c3d8" d="M 75.5,79.5 C 95.5565,80.6355 102.39,90.6355 96,109.5C 92.6599,114.087 88.1599,116.42 82.5,116.5C 87.5271,127.55 93.3605,138.217 100,148.5C 101.897,150.016 104.064,150.683 106.5,150.5C 106.5,151.5 106.5,152.5 106.5,153.5C 100.824,153.666 95.1569,153.499 89.5,153C 82.9387,141.945 76.6054,130.778 70.5,119.5C 68.0521,118.527 65.3854,118.194 62.5,118.5C 62.1736,127.349 62.507,136.016 63.5,144.5C 64.1751,149.686 67.1751,151.686 72.5,150.5C 72.5,151.5 72.5,152.5 72.5,153.5C 62.1667,153.5 51.8333,153.5 41.5,153.5C 41.5,152.5 41.5,151.5 41.5,150.5C 45.4896,151.384 48.3229,150.051 50,146.5C 50.6667,126.167 50.6667,105.833 50,85.5C 48.0428,82.558 45.2095,81.2247 41.5,81.5C 52.4507,79.5223 63.784,78.8556 75.5,79.5 Z M 70.5,146.5 C 70.5173,148.028 71.184,148.528 72.5,148C 71.9558,147.283 71.2891,146.783 70.5,146.5 Z"/></g>
<g><path style="opacity:1" fill="#030508" d="M 65.5,84.5 C 81.9047,82.4027 88.4047,89.4027 85,105.5C 83.2714,109.785 80.1047,112.285 75.5,113C 71.5138,113.499 67.5138,113.666 63.5,113.5C 62.8999,103.572 63.5666,93.9053 65.5,84.5 Z"/></g>
<g><path style="opacity:1" fill="#041e33" d="M 153.5,84.5 C 162.302,82.3049 163.469,84.3049 157,90.5C 155.541,88.5681 154.375,86.5681 153.5,84.5 Z"/></g>
<g><path style="opacity:1" fill="#032037" d="M 66.5,86.5 C 68.5273,86.3379 70.5273,86.5045 72.5,87C 69.9426,89.8922 67.776,93.0589 66,96.5C 65.2534,93.0764 65.42,89.7431 66.5,86.5 Z"/></g>
<g><path style="opacity:1" fill="#031f35" d="M 97.5,85.5 C 106.458,85.649 113.958,88.9824 120,95.5C 121.289,97.0548 121.956,98.7215 122,100.5C 121,101.167 120,101.833 119,102.5C 114.382,95.4384 107.882,91.2718 99.5,90C 98.4178,88.6703 97.7512,87.1703 97.5,85.5 Z"/></g>
<g><path style="opacity:1" fill="#031f36" d="M 75.5,87.5 C 77.6648,87.1159 79.3315,87.7826 80.5,89.5C 74.7156,95.7302 71.7156,103.064 71.5,111.5C 69.8333,111.5 68.1667,111.5 66.5,111.5C 66.7033,102.431 69.7033,94.4309 75.5,87.5 Z"/></g>
<g><path style="opacity:1" fill="#03192b" d="M 155.5,130.5 C 157.138,122.236 157.638,113.902 157,105.5C 155.294,96.7201 152.627,88.3868 149,80.5C 158.989,96.2635 161.155,112.93 155.5,130.5 Z"/></g>
<g><path style="opacity:1" fill="#032036" d="M 82.5,92.5 C 83.6291,94.6282 83.7958,96.9615 83,99.5C 81.107,102.618 79.7736,105.951 79,109.5C 77.6667,110.167 76.3333,110.833 75,111.5C 74.7074,104.082 77.2074,97.7489 82.5,92.5 Z"/></g>
<g><path style="opacity:1" fill="#032036" d="M 100.5,94.5 C 107.784,94.6609 112.617,97.9943 115,104.5C 114,105.5 113,106.5 112,107.5C 109.928,102.621 106.261,99.6209 101,98.5C 100.51,97.2068 100.343,95.8734 100.5,94.5 Z"/></g>
<g><path style="opacity:1" fill="#9fc1d7" d="M 123.5,101.5 C 128.511,101.334 133.511,101.501 138.5,102C 146.47,102.623 149.97,106.79 149,114.5C 145.333,117.167 141.667,117.167 138,114.5C 137.326,111.078 136.16,107.911 134.5,105C 128.944,103.222 125.11,105.055 123,110.5C 120.793,119.354 121.46,128.02 125,136.5C 128.29,142.312 133.29,144.979 140,144.5C 143.2,144.344 146.367,144.011 149.5,143.5C 149.5,144.833 149.5,146.167 149.5,147.5C 140.139,150.293 130.806,150.127 121.5,147C 114.795,143.099 110.962,137.266 110,129.5C 107.326,116.518 111.826,107.185 123.5,101.5 Z"/></g>
<g><path style="opacity:1" fill="#031f36" d="M 100.5,102.5 C 108.998,105.172 111.165,110.505 107,118.5C 101.547,122.802 96.714,122.302 92.5,117C 92.9541,115.378 93.9541,114.212 95.5,113.5C 97.8593,117.125 100.693,117.458 104,114.5C 105.299,110.292 103.799,107.625 99.5,106.5C 100.246,105.264 100.579,103.93 100.5,102.5 Z"/></g>
<g><path style="opacity:1" fill="#031f36" d="M 128.5,106.5 C 130.167,106.5 131.833,106.5 133.5,106.5C 134.572,116.553 132.072,125.553 126,133.5C 125.399,131.863 124.899,130.197 124.5,128.5C 127.913,121.558 129.246,114.225 128.5,106.5 Z"/></g>
<g><path style="opacity:1" fill="#031f36" d="M 37.5,109.5 C 38.7479,110.334 39.4146,111.667 39.5,113.5C 39.3333,114.833 39.1667,116.167 39,117.5C 36.9205,115.877 34.7538,114.377 32.5,113C 34.5844,112.303 36.2511,111.136 37.5,109.5 Z"/></g>
<g><path style="opacity:1" fill="#031f35" d="M 160.5,108.5 C 162.805,109.989 165.138,111.489 167.5,113C 165.246,114.377 163.08,115.877 161,117.5C 160.502,114.518 160.335,111.518 160.5,108.5 Z"/></g>
<g><path style="opacity:1" fill="#032036" d="M 136.5,116.5 C 140.148,117.5 141.314,119.834 140,123.5C 138.303,129.896 135.303,135.562 131,140.5C 129.833,139.333 128.667,138.167 127.5,137C 132.542,131.08 135.542,124.247 136.5,116.5 Z"/></g>
<g><path style="opacity:1" fill="#031f36" d="M 86.5,117.5 C 89.6032,119.423 92.6032,121.59 95.5,124C 99.5355,124.85 103.369,124.35 107,122.5C 107.495,124.473 107.662,126.473 107.5,128.5C 97.3192,132.068 89.9859,129.068 85.5,119.5C 85.8627,118.817 86.1961,118.15 86.5,117.5 Z"/></g>
<g><path style="opacity:1" fill="#576a76" d="M 70.5,119.5 C 68.1667,119.5 65.8333,119.5 63.5,119.5C 63.5,127.833 63.5,136.167 63.5,144.5C 62.507,136.016 62.1736,127.349 62.5,118.5C 65.3854,118.194 68.0521,118.527 70.5,119.5 Z"/></g>
<g><path style="opacity:1" fill="#031a2c" d="M 47.5,86.5 C 48.0431,86.56 48.3764,86.8933 48.5,87.5C 42.751,99.6612 41.251,112.328 44,125.5C 45.5759,130.541 46.9092,135.541 48,140.5C 39.5747,122.54 39.4081,104.54 47.5,86.5 Z"/></g>
<g><path style="opacity:1" fill="#031d32" d="M 67.5,121.5 C 69.4331,122.642 70.9331,124.308 72,126.5C 74.0192,130.191 75.6858,133.858 77,137.5C 72.5512,132.937 69.3845,127.604 67.5,121.5 Z"/></g>
<g><path style="opacity:1" fill="#032036" d="M 65.5,127.5 C 69.7368,134.74 75.4035,140.74 82.5,145.5C 84.4414,147.316 85.1081,149.316 84.5,151.5C 77.8642,148.264 72.0308,143.93 67,138.5C 65.6632,134.974 65.1632,131.308 65.5,127.5 Z"/></g>
<g><path style="opacity:1" fill="#032038" d="M 106.5,131.5 C 108.741,132.3 109.741,133.966 109.5,136.5C 104.612,137.611 99.7786,137.611 95,136.5C 93.4574,134.911 93.4574,133.577 95,132.5C 99.1051,133.98 102.938,133.646 106.5,131.5 Z"/></g>
<g><path style="opacity:1" fill="#031e34" d="M 157.5,131.5 C 160.241,132.439 162.241,134.273 163.5,137C 161.302,137.373 159.135,137.873 157,138.5C 156.5,138.167 156,137.833 155.5,137.5C 156.372,135.55 157.039,133.55 157.5,131.5 Z"/></g>
<g><path style="opacity:1" fill="#061625" d="M 147.5,84.5 C 149.136,85.7489 150.303,87.4156 151,89.5C 156.263,104.349 156.93,119.349 153,134.5C 153.934,133.142 154.768,131.808 155.5,130.5C 154.845,134.812 153.345,138.812 151,142.5C 150.667,141.5 150.333,140.5 150,139.5C 149.28,141.255 148.113,142.089 146.5,142C 156.796,123.041 157.129,103.875 147.5,84.5 Z"/></g>
<g><path style="opacity:1" fill="#031f35" d="M 42.5,135.5 C 44.3627,136.967 45.696,138.967 46.5,141.5C 43.8938,142.652 41.2272,142.818 38.5,142C 40.0854,139.931 41.4187,137.764 42.5,135.5 Z"/></g>
<g><path style="opacity:1" fill="#032037" d="M 108.5,139.5 C 111.114,139.277 112.781,140.444 113.5,143C 109.372,145.066 105.039,145.732 100.5,145C 99.6433,144.311 98.9767,143.478 98.5,142.5C 101.953,141.487 105.287,140.487 108.5,139.5 Z"/></g>
<g><path style="opacity:1" fill="#031e34" d="M 113.5,146.5 C 116.157,146.162 118.49,146.829 120.5,148.5C 117.12,150.74 113.454,152.407 109.5,153.5C 108.756,152.009 108.09,150.509 107.5,149C 109.723,148.434 111.723,147.6 113.5,146.5 Z"/></g>
<g><path style="opacity:1" fill="#032037" d="M 131.5,151.5 C 133.527,151.338 135.527,151.505 137.5,152C 134.113,155.053 130.447,157.72 126.5,160C 124.167,160.667 121.833,160.667 119.5,160C 120.956,159.577 121.456,158.744 121,157.5C 119.601,156.773 118.101,156.273 116.5,156C 121.022,154.886 125.689,154.053 130.5,153.5C 130.863,152.817 131.196,152.15 131.5,151.5 Z"/></g>
<g><path style="opacity:1" fill="#041f34" d="M 79.5,161.5 C 76.8333,160.833 74.1667,160.167 71.5,159.5C 70.4264,158.115 69.0931,156.949 67.5,156C 71.5284,155.716 75.3618,154.882 79,153.5C 82.5643,154.56 85.0643,156.893 86.5,160.5C 84.236,160.331 81.9026,160.664 79.5,161.5 Z"/></g>
<g><path style="opacity:1" fill="#031f36" d="M 103.5,159.5 C 103.833,162.167 104.167,164.833 104.5,167.5C 101.833,167.5 99.1667,167.5 96.5,167.5C 96.7947,165.265 96.4614,163.265 95.5,161.5C 96.0138,159.561 97.3472,158.561 99.5,158.5C 100.849,158.846 102.183,159.179 103.5,159.5 Z"/></g>
<g><path style="opacity:1" fill="#9a8263" d="M 103.5,159.5 C 103.389,158.883 103.056,158.383 102.5,158C 104.167,157.333 105.833,157.333 107.5,158C 106.557,160.8 106.724,163.634 108,166.5C 109.795,155.295 112.128,154.961 115,165.5C 116.631,163.045 116.797,160.545 115.5,158C 116.833,157.333 118.167,157.333 119.5,158C 118.229,161.852 116.896,165.685 115.5,169.5C 113.875,167.079 112.542,164.413 111.5,161.5C 110.458,164.413 109.125,167.079 107.5,169.5C 106.169,166.094 104.836,162.761 103.5,159.5 Z"/></g>
<g><path style="opacity:1" fill="#191613" d="M 71.5,159.5 C 74.1667,160.167 76.8333,160.833 79.5,161.5C 78.4634,163.738 78.2967,166.071 79,168.5C 79.69,169.738 80.19,169.738 80.5,168.5C 81.397,169.598 82.2303,169.598 83,168.5C 83.4935,166.866 83.6602,165.199 83.5,163.5C 84.3019,164.952 84.8019,166.618 85,168.5C 85.4935,166.866 85.6602,165.199 85.5,163.5C 85.9724,165.531 86.9724,167.198 88.5,168.5C 89.1667,169.833 89.8333,169.833 90.5,168.5C 91.0431,168.56 91.3764,168.893 91.5,169.5C 87.2172,170.492 82.8839,170.826 78.5,170.5C 77.5,170.5 76.5,170.5 75.5,170.5C 75.5,170.167 75.5,169.833 75.5,169.5C 76.1239,169.083 76.4573,168.416 76.5,167.5C 75.7515,165.964 74.7515,164.631 73.5,163.5C 74.6034,163.002 75.6034,162.669 76.5,162.5C 74.1674,160.998 72.5007,161.498 71.5,164C 72.6045,165.715 73.9378,167.215 75.5,168.5C 73.8615,169.914 72.5282,169.58 71.5,167.5C 70.7025,167.957 70.3691,168.624 70.5,169.5C 69.7337,167.316 69.0671,164.982 68.5,162.5C 66.6471,161.24 64.8138,161.24 63,162.5C 62.3123,163.332 62.479,163.998 63.5,164.5C 65.3671,161.771 66.3671,162.104 66.5,165.5C 64.0274,165.088 62.6941,166.088 62.5,168.5C 60.6834,170.51 58.6834,170.843 56.5,169.5C 56.4021,167.397 56.7354,165.064 57.5,162.5C 58.1667,163.167 58.8333,163.833 59.5,164.5C 60.521,163.998 60.6877,163.332 60,162.5C 55.3252,160.666 53.4919,162.333 54.5,167.5C 53.1888,165.44 53.1888,163.274 54.5,161C 57.047,160.933 59.2137,160.099 61,158.5C 62.0852,159.293 63.2519,159.96 64.5,160.5C 64.8333,159.833 65.1667,159.167 65.5,158.5C 67.3817,159.093 69.2151,159.76 71,160.5C 71.3988,160.272 71.5654,159.938 71.5,159.5 Z"/></g>
<g><path style="opacity:1" fill="#927b5e" d="M 70.5,169.5 C 68.6054,169.913 66.6054,170.247 64.5,170.5C 63.4777,170.145 62.811,169.478 62.5,168.5C 62.6941,166.088 64.0274,165.088 66.5,165.5C 66.3671,162.104 65.3671,161.771 63.5,164.5C 62.479,163.998 62.3123,163.332 63,162.5C 64.8138,161.24 66.6471,161.24 68.5,162.5C 69.0671,164.982 69.7337,167.316 70.5,169.5 Z"/></g>
<g><path style="opacity:1" fill="#08090b" d="M 83.5,163.5 C 83.6602,165.199 83.4935,166.866 83,168.5C 82.2303,169.598 81.397,169.598 80.5,168.5C 80.5,166.5 80.5,164.5 80.5,162.5C 81.791,162.263 82.791,162.596 83.5,163.5 Z"/></g>
<g><path style="opacity:1" fill="#b09471" d="M 124.5,162.5 C 123.031,171.662 121.697,171.495 120.5,162C 121.928,161.421 123.262,161.588 124.5,162.5 Z"/></g>
<g><path style="opacity:1" fill="#bd9f79" d="M 129.5,162.5 C 130.542,161.209 131.708,161.209 133,162.5C 133.814,164.902 133.647,167.235 132.5,169.5C 132.062,166.705 131.062,164.372 129.5,162.5 Z"/></g>
<g><path style="opacity:1" fill="#b99b77" d="M 144.5,162.5 C 145.542,161.209 146.708,161.209 148,162.5C 148.814,164.902 148.647,167.235 147.5,169.5C 147.062,166.705 146.062,164.372 144.5,162.5 Z"/></g>
<g><path style="opacity:1" fill="#a38968" d="M 152.5,158.5 C 153.186,159.848 154.186,161.015 155.5,162C 152.895,164.411 152.895,166.911 155.5,169.5C 154.349,170.731 153.183,170.731 152,169.5C 151.774,166.905 151.274,164.405 150.5,162C 151.823,161.184 152.489,160.017 152.5,158.5 Z"/></g>
<g><path style="opacity:1" fill="#a28868" d="M 46.5,157.5 C 48.1667,157.5 49.8333,157.5 51.5,157.5C 51.7381,161.099 50.7381,161.433 48.5,158.5C 47.5,158.833 46.8333,159.5 46.5,160.5C 48.3868,162.04 50.2201,163.707 52,165.5C 52.6667,166.5 52.6667,167.5 52,168.5C 49.7724,170.113 47.2724,170.78 44.5,170.5C 44.3505,169.448 44.5172,168.448 45,167.5C 46.3561,168.38 47.8561,168.714 49.5,168.5C 49.6495,167.448 49.4828,166.448 49,165.5C 44.3772,163.808 43.5439,161.142 46.5,157.5 Z"/></g>
<g><path style="opacity:1" fill="#b59874" d="M 56.5,169.5 C 55.5,169.167 54.8333,168.5 54.5,167.5C 53.4919,162.333 55.3252,160.666 60,162.5C 60.6877,163.332 60.521,163.998 59.5,164.5C 58.8333,163.833 58.1667,163.167 57.5,162.5C 56.7354,165.064 56.4021,167.397 56.5,169.5 Z"/></g>
<g><path style="opacity:1" fill="#b09371" d="M 75.5,169.5 C 75.5,169.167 75.5,168.833 75.5,168.5C 73.9378,167.215 72.6045,165.715 71.5,164C 72.5007,161.498 74.1674,160.998 76.5,162.5C 75.6034,162.669 74.6034,163.002 73.5,163.5C 74.7515,164.631 75.7515,165.964 76.5,167.5C 76.4573,168.416 76.1239,169.083 75.5,169.5 Z"/></g>
<g><path style="opacity:1" fill="#b79a75" d="M 79.5,161.5 C 82.0101,161.054 84.0101,161.72 85.5,163.5C 85.6602,165.199 85.4935,166.866 85,168.5C 84.8019,166.618 84.3019,164.952 83.5,163.5C 82.791,162.596 81.791,162.263 80.5,162.5C 80.5,164.5 80.5,166.5 80.5,168.5C 80.19,169.738 79.69,169.738 79,168.5C 78.2967,166.071 78.4634,163.738 79.5,161.5 Z"/></g>
<g><path style="opacity:1" fill="#b49773" d="M 139.5,162.5 C 138.04,171.695 136.706,171.528 135.5,162C 136.928,161.421 138.262,161.588 139.5,162.5 Z"/></g>
<g><path style="opacity:1" fill="#bea07a" d="M 139.5,162.5 C 140.999,161.506 142.666,161.506 144.5,162.5C 143.942,164.823 143.275,167.157 142.5,169.5C 142.062,166.705 141.062,164.372 139.5,162.5 Z"/></g>
<g><path style="opacity:1" fill="#b39773" d="M 95.5,161.5 C 95.2035,171.209 94.3701,171.542 93,162.5C 90.9614,163.978 90.1281,165.978 90.5,168.5C 89.8333,169.833 89.1667,169.833 88.5,168.5C 88.7564,166.208 88.4231,164.041 87.5,162C 90.0613,162.401 92.7279,162.235 95.5,161.5 Z"/></g>
<g><path style="opacity:1" fill="#bb9e78" d="M 124.5,162.5 C 125.999,161.506 127.666,161.506 129.5,162.5C 128.942,164.823 128.275,167.157 127.5,169.5C 127.062,166.705 126.062,164.372 124.5,162.5 Z"/></g>
<g><path style="opacity:0.993" fill="#030201" d="M 64.5,166.5 C 66.337,166.639 66.6704,167.306 65.5,168.5C 64.7025,168.043 64.3691,167.376 64.5,166.5 Z"/></g>
<g><path style="opacity:1" fill="#5e4f3c" d="M 75.5,168.5 C 75.5,168.833 75.5,169.167 75.5,169.5C 75.5,169.833 75.5,170.167 75.5,170.5C 73.7085,170.634 72.0418,170.301 70.5,169.5C 70.3691,168.624 70.7025,167.957 71.5,167.5C 72.5282,169.58 73.8615,169.914 75.5,168.5 Z"/></g>
<g><path style="opacity:1" fill="#031f35" d="M 75.5,170.5 C 76.5,170.5 77.5,170.5 78.5,170.5C 79.8083,171.232 81.1416,172.066 82.5,173C 77.8715,179.445 75.5381,178.612 75.5,170.5 Z"/></g>
<g><path style="opacity:1" fill="#031f36" d="M 122.5,172.5 C 124.265,171.539 126.265,171.205 128.5,171.5C 128.762,172.978 128.429,174.311 127.5,175.5C 125.971,174.237 124.305,173.237 122.5,172.5 Z"/></g>
<g><path style="opacity:1" fill="#032037" d="M 96.5,176.5 C 103.301,174.436 104.635,176.103 100.5,181.5C 98.9178,179.985 97.5845,178.319 96.5,176.5 Z"/></g>
</svg>
